# xmcd
# 
# Track frame offsets:
#     183
#     17475
#     43188
#     72390
#     88103
#     111810
#     135300
#     156613
#     172933
#     178420
#     213748
#     235633
# 
# Disc length: 3580
# 
# Revision: 3
# Processed by: cddbd v1.5.2PL0 Copyright (c) Steve Scherf et al.
# Submitted via: BonkEnc v1.0
# 
DISCID=a70dfa0c
DTITLE=Clapton, Eric - Tears In Heaven
DYEAR=1994
DGENRE=Rock
TTITLE0=Before You Accuse Me
TTITLE1=Lonely Stranger
TTITLE2=Running On Faith
TTITLE3=Knowbody Knows You
TTITLE4=Layla
TTITLE5=Tears In Heaven
TTITLE6=Circus Left Town
TTITLE7=Alberta
TTITLE8=Rollin' And Tumblin'
TTITLE9=Old Love
TTITLE10=She's Waiting
TTITLE11=Layla
EXTD=
EXTT0=
EXTT1=
EXTT2=
EXTT3=
EXTT4=
EXTT5=
EXTT6=
EXTT7=
EXTT8=
EXTT9=
EXTT10=
EXTT11=
PLAYORDER=
